<svg xmlns="http://www.w3.org/2000/svg" version="1.1" id="Layer_1" x="0px" y="0px" viewBox="0 0 406.28 130.89" style="enable-background:new 0 0 406.28 130.89;" xmlns:xlink="http://www.w3.org/1999/xlink" xml:space="preserve" width="102"  height="32.86103180072856" >
<path class="st0" d="M82.69,89.85l-22.8-25.71c14.31-2.9,19.04-13.34,19.04-23.72c0-13.07-9.36-24.9-27.1-25.01  c-11.94,0.11-23.88,0-35.82,0v75.4h14.2V65.65h13.66L65.8,90.82h16.89V89.85L82.69,89.85z M142.47,30.15V15.42h13.58v11.7  c0,6.26-0.72,10.78-2.19,13.52c-2.05,3.8-5.2,6.64-9.51,8.57l-3.03-5.01c2.55-1.04,4.43-2.65,5.68-4.89  c1.25-2.21,1.95-5.27,2.09-9.17H142.47L142.47,30.15z M375.78,15.63v75.19h13.01V15.63H375.78L375.78,15.63z M363.95,37.57v53.24  h-13.12V37.57H363.95L363.95,37.57z M349.65,22.84c0,10.22,15.49,10.22,15.49,0C365.13,12.62,349.65,12.62,349.65,22.84  L349.65,22.84z M286.72,37.79v27.86c0,16.46,9.25,26.03,21.94,26.03c7.42,0,12.48-2.58,17.96-7.96l0.86,7.1h11.73V37.79H326.2v27.05  c0,8.12-5.49,14.9-13.55,14.9c-8.39,0-12.8-6.13-12.8-14.2V37.79H286.72L286.72,37.79z M246.61,79.42  c-8.93,0-15.06-6.78-15.06-15.06c0-8.28,5.59-15.06,15.06-15.06c9.47,0,15.06,6.78,15.06,15.06  C261.66,72.64,255.53,79.42,246.61,79.42L246.61,79.42z M275.97,112.97V37.79h-12.26l-0.86,7.31c-4.09-5.92-11.19-8.5-17.21-8.5  c-16.35,0-27.21,12.15-27.21,27.75c0,15.49,9.79,27.75,26.78,27.75c5.59,0,13.87-1.72,17.64-7.53v28.39H275.97L275.97,112.97z   M210.9,68.98c2.04-21.83-9.04-32.8-26.78-32.8c-17.21,0-28.18,11.62-28.18,27.75c0,17,10.86,28.29,29.15,28.29  c8.07,0,17.21-2.8,22.8-8.61l-8.39-8.28c-3.01,3.12-9.36,4.95-14.2,4.95c-9.25,0-14.95-4.73-15.81-11.3H210.9L210.9,68.98z   M169.7,58.12c1.94-6.88,7.74-10.33,14.84-10.33c7.53,0,12.91,3.44,13.77,10.33H169.7L169.7,58.12z M138.04,68.98  c2.04-21.83-9.04-32.8-26.78-32.8c-17.21,0-28.18,11.62-28.18,27.75c0,17,10.86,28.29,29.15,28.29c8.06,0,17.21-2.8,22.8-8.61  l-8.39-8.28c-3.01,3.12-9.36,4.95-14.2,4.95c-9.25,0-14.95-4.73-15.81-11.3H138.04L138.04,68.98z M96.85,58.12  c1.94-6.88,7.74-10.33,14.84-10.33c7.53,0,12.91,3.44,13.77,10.33H96.85L96.85,58.12z M51.82,28.65c8.93,0,12.91,6.04,12.91,12.1  c0,6.06-3.87,12.1-12.91,12.1H38.29H30.2h-6.5l6.5-4.13V28.65H51.82L51.82,28.65z" fill="#001E6B"></path>
</svg>